<svg xmlns="http://www.w3.org/2000/svg" xmlns:xlink="http://www.w3.org/1999/xlink" version="1.1" x="0px" y="0px" viewBox="0 0 512 640" enable-background="new 0 0 512 512" xml:space="preserve"><path d="M449.229,42.945c-23.107-19.957-46.154-26.399-47.124-26.664c-3.239-0.883-6.693,0.353-8.635,3.098  c-1.942,2.745-1.961,6.41-0.047,9.174c28.146,40.657,35.638,80.737,22.264,119.127c-8.509,24.426-23.223,40.548-27.712,45.079  l-26.656,6.664c-18.673-27.046-47.51-46.747-81.318-53.168V136c0-3.03-1.712-5.8-4.422-7.155l-16-8  c-2.254-1.126-4.902-1.126-7.156,0l-16,8C233.712,130.2,232,132.97,232,136v10.256c-33.808,6.42-62.645,26.121-81.318,53.168  l-26.67-6.667c-4.439-4.454-18.875-20.201-27.473-44.432c-13.688-38.578-6.274-78.875,22.038-119.771  c1.914-2.764,1.896-6.43-0.047-9.174c-1.941-2.746-5.396-3.981-8.635-3.098c-0.97,0.265-24.017,6.707-47.124,26.664  C41.435,61.373,16,95.25,16,152c0,57.029,23.492,86.619,43.2,101.4c19.736,14.802,39.479,17.984,43.343,18.482L128,278.246v184.455  l-7.59,22.769c-0.812,2.439-0.403,5.121,1.1,7.208c1.504,2.086,3.919,3.322,6.49,3.322h32c3.443,0,6.501-2.204,7.59-5.47l8-24  c0.271-0.816,0.41-1.67,0.41-2.53V344h56v45.578l-14.656,21.985c-1.273,1.909-1.665,4.273-1.076,6.491  c0.59,2.218,2.103,4.076,4.154,5.102l32,16c2.254,1.126,4.902,1.126,7.156,0l32-16c2.052-1.026,3.564-2.884,4.154-5.102  c0.589-2.218,0.197-4.582-1.076-6.491L280,389.578V344h56v120c0,0.86,0.139,1.714,0.41,2.53l8,24c1.089,3.267,4.146,5.47,7.59,5.47  h32c2.571,0,4.986-1.236,6.49-3.322c1.503-2.086,1.912-4.768,1.1-7.208L384,462.702V278.246l25.457-6.364  c3.864-0.499,23.607-3.68,43.343-18.482C472.508,238.619,496,209.029,496,152C496,95.25,470.565,61.373,449.229,42.945z M280,162.59  c48.182,10.527,84.178,52.048,87.714,101.41H280V162.59z M248,140.944l8-4l8,4V264h-16V140.944z M232,162.59V264h-87.714  C147.822,214.638,183.818,173.117,232,162.59z M98.084,254.679c-7.012-1.811-18.532-5.855-29.886-14.535  C44.179,221.782,32,192.126,32,152c0-40.435,13.7-72.904,40.721-96.504c6.59-5.755,13.224-10.27,19.189-13.744  c-24.287,46.711-19.677,85.92-10.449,111.923c8.848,24.936,23.1,41.874,29.677,48.79L98.084,254.679z M113.701,258.179l12.12-48.478  l16.271,4.068c-7.545,14.691-12.319,30.969-13.682,48.087L113.701,258.179z M357.766,480L352,462.702V336c0-4.418-3.582-8-8-8h-72  c-4.418,0-8,3.582-8,8v56c0,1.58,0.468,3.124,1.344,4.438l10.973,16.46L256,423.056l-20.316-10.158l10.973-16.46  C247.532,395.124,248,393.58,248,392v-56c0-4.418-3.582-8-8-8h-72c-4.418,0-8,3.582-8,8v126.702L154.234,480H139.1l4.49-13.47  c0.271-0.816,0.41-1.67,0.41-2.53V280h224v184c0,0.86,0.139,1.714,0.41,2.53L372.9,480H357.766z M383.589,261.856  c-1.363-17.118-6.137-33.396-13.682-48.087l16.271-4.068l12.12,48.478L383.589,261.856z M443.802,240.145  c-11.357,8.682-22.882,12.727-29.886,14.536l-13.054-52.215c6.577-6.916,20.829-23.854,29.677-48.79  c9.229-26.009,13.839-65.231-10.467-111.956c5.8,3.382,12.244,7.761,18.699,13.335C466.129,78.682,480,111.299,480,152  C480,192.126,467.821,221.782,443.802,240.145z M184,304c0,4.418-3.582,8-8,8s-8-3.582-8-8s3.582-8,8-8S184,299.582,184,304z   M224,304c0,4.418-3.582,8-8,8s-8-3.582-8-8s3.582-8,8-8S224,299.582,224,304z M264,304c0,4.418-3.582,8-8,8c-4.418,0-8-3.582-8-8  s3.582-8,8-8C260.418,296,264,299.582,264,304z M304,304c0,4.418-3.582,8-8,8s-8-3.582-8-8s3.582-8,8-8S304,299.582,304,304z   M344,304c0,4.418-3.582,8-8,8s-8-3.582-8-8s3.582-8,8-8S344,299.582,344,304z"/><text x="0" y="527" fill="#000000" font-size="5px" font-weight="bold" font-family="'Helvetica Neue', Helvetica, Arial-Unicode, Arial, Sans-serif">Created by iconixar</text><text x="0" y="532" fill="#000000" font-size="5px" font-weight="bold" font-family="'Helvetica Neue', Helvetica, Arial-Unicode, Arial, Sans-serif">from the Noun Project</text></svg>